<?xml version="1.0" encoding="UTF-8" standalone="no"?>
<!-- Generator: Adobe Illustrator 26.0.3, SVG Export Plug-In . SVG Version: 6.00 Build 0)  -->

<svg
   version="1.1"
   id="svg7"
   x="0px"
   y="0px"
   viewBox="0 0 152 152"
   style="enable-background:new 0 0 152 152;"
   xml:space="preserve"
   xmlns="http://www.w3.org/2000/svg"
   xmlns:svg="http://www.w3.org/2000/svg"><defs
     id="defs18" /><path
     d="m 152.00007,104.45106 c 0,1.81746 0,3.63164 -0.0137,5.4458 -0.009,1.52999 -0.0264,3.05996 -0.0661,4.58665 -0.0421,3.34495 -0.3359,6.68201 -0.87894,9.98286 -0.56505,3.30449 -1.61913,6.50324 -3.12919,9.49381 -3.0607,6.00887 -7.94562,10.89402 -13.95418,13.95486 -2.98917,1.50807 -6.18661,2.56169 -9.48672,3.12605 -3.30433,0.54525 -6.6417,0.83935 -9.98568,0.87901 -1.5285,0.0395 -3.0574,0.0626 -4.5864,0.0693 C 108.08178,152 106.26772,152 104.45364,152 H 47.546533 c -1.814077,0 -3.628155,0 -5.445532,-0.009 -1.528987,-0.006 -3.057885,-0.0277 -4.586402,-0.0661 -3.346,-0.0427 -6.684021,-0.33762 -9.985682,-0.8823 -3.301023,-0.56178 -6.499599,-1.61923 -9.486716,-3.12608 C 12.034273,144.85626 7.1494656,139.97236 4.0880232,133.96486 2.5784146,130.97244 1.5237389,127.77149 0.95883457,124.46775 0.4158029,121.16801 0.1219888,117.83205 0.07988508,114.48819 0.04021334,112.9582 0.02045347,111.42823 0.01376551,109.89825 8.5595431e-5,108.08078 8.5595431e-5,106.26991 8.5595431e-5,104.45245 V 47.549091 c 0,-1.817479 0,-3.634944 0.01367991457,-5.452408 0.00608,-1.526687 0.02644783,-3.05666 0.06611957,-4.583332 C 0.1219888,34.169487 0.41584849,30.833526 0.95883457,27.533773 1.5238757,24.229293 2.5779587,21.030543 4.0880232,18.036673 7.1487209,12.027808 12.033635,7.1426334 18.042201,4.0817936 21.030518,2.5745005 24.226754,1.5209123 27.525619,0.9557458 30.82994,0.4138049 34.167307,0.11971522 37.511284,0.07676002 39.041201,0.03708801 40.571102,0.01732801 42.097688,0.01064 43.915078,0 45.732456,0 47.54322,0 h 56.90711 c 1.81739,0 3.63477,0 5.44884,0.01064 1.52899,0.00608 3.05787,0.02766401 4.5864,0.06612002 3.34398,0.043016 6.68135,0.33704488 9.98237,0.87898578 3.30432,0.5650753 6.49962,1.6192107 9.49003,3.1260478 6.01006,3.0599125 10.89629,7.9452394 13.95748,13.9548794 1.50833,2.991499 2.56189,6.191328 3.12589,9.493802 0.54308,3.300847 0.83689,6.637902 0.87895,9.982876 0.0397,1.52997 0.0594,3.059958 0.0661,4.586631 0.0137,1.817465 0.0137,3.63163 0.0137,5.445795 z"
     id="path4"
     style="fill:#00529c;fill-opacity:1" /><g
     id="g4225"
     transform="matrix(0.92295471,0,0,0.94384076,-233.5963,-41.93017)"><g
       aria-label="mo"
       transform="matrix(0.88190523,0,0,0.8860037,244.57856,24.527575)"
       id="text1310"
       style="font-size:72.0062px;line-height:1.25;font-family:'TXT Groovy Smooth';-inkscape-font-specification:'TXT Groovy Smooth';fill:#f36f21;stroke-width:3.00026"><path
         d="m 67.186309,170.06743 v -20.52177 q 0,-2.59222 0.792068,-5.04043 1.872162,-5.7605 5.976515,-9.2168 4.464385,-3.81633 10.224881,-3.81633 6.192534,0 11.665005,5.11244 4.968432,-5.11244 11.593002,-5.11244 5.76049,0 10.29688,3.74433 4.53639,3.74432 6.04852,9.50482 0.72007,2.73623 0.72007,4.46438 v 20.8818 h -10.58492 v -20.30575 q -0.14401,-1.1521 -0.14401,-1.29611 -0.50404,-2.52022 -2.08818,-4.32037 -1.80015,-2.01618 -4.17636,-2.01618 -2.3762,0 -4.17636,2.01618 -1.51213,1.80015 -2.01617,4.32037 -0.072,0.50404 -0.14401,1.29611 v 20.30575 H 90.516319 v -20.52177 q -0.144012,-1.08009 -0.144012,-1.1521 -0.504044,-2.52022 -2.08818,-4.32037 -1.800155,-1.94417 -4.17636,-1.94417 -2.736236,0 -4.608397,2.66423 -1.728149,2.37621 -1.728149,5.25645 v 20.01773 z"
         id="path2616" /><path
         d="m 127.09552,150.76977 q 0,-7.92069 5.61649,-13.53717 5.61648,-5.61648 13.46516,-5.61648 7.99269,0 13.68118,5.61648 5.68849,5.61648 5.68849,13.60917 0,7.84868 -5.68849,13.53717 -5.61649,5.68849 -13.53717,5.68849 -7.99269,0 -13.60917,-5.61649 -5.61649,-5.68849 -5.61649,-13.68117 z m 10.58492,0 q 0,3.60031 2.52021,6.12052 2.52022,2.52022 6.12053,2.52022 3.5283,0 6.04852,-2.52022 2.59222,-2.59222 2.59222,-6.12052 0,-3.52831 -2.59222,-6.04852 -2.59222,-2.52022 -6.12053,-2.52022 -3.5283,0 -6.04852,2.52022 -2.52021,2.52021 -2.52021,6.04852 z"
         id="path2618" /></g><path
       d="m 318.23659,100.35233 c 0.38676,-0.380026 0.8435,-0.868911 1.37058,-1.467467 0.52576,-0.598548 1.02387,-1.305314 1.49445,-2.121597 0.47058,-0.816233 0.87251,-1.725606 1.20407,-2.732303 0.33305,-1.005385 0.49958,-2.079617 0.49958,-3.221387 0,-2.228351 -0.38809,-4.308021 -1.16289,-6.238958 -0.77612,-1.929677 -1.96652,-3.616124 -3.57249,-5.057975 -1.60596,-1.439132 -3.61236,-2.568755 -6.02211,-3.384988 -2.4083,-0.814772 -5.2198,-1.222914 -8.43043,-1.222914 h -0.0881 -9.23128 -2.40277 -9.45966 v 10.396783 35.993106 10.70356 h 23.25849 c 3.37716,0 6.32489,-0.44855 8.84599,-1.34579 2.51833,-0.89722 4.61019,-2.13373 6.27117,-3.7107 1.66099,-1.57696 2.89272,-3.41202 3.69635,-5.50514 0.80234,-2.09309 1.20408,-4.3363 1.20408,-6.72947 0,-3.20797 -0.74732,-6.06194 -2.24179,-8.56456 -1.49592,-2.49997 -3.24089,-4.43091 -5.23346,-5.79035 M 307.95246,85.36639 c 0.78296,0.293328 1.43667,0.674255 1.9473,1.153914 1.32257,1.245948 1.98442,2.735024 1.98442,4.467385 0,1.571483 -0.27654,2.870099 -0.82706,3.898416 -0.55182,1.02973 -1.10364,1.814765 -1.65417,2.355258 H 293.23459 V 84.691931 h 10.05006 c 1.88397,0 3.43492,0.228314 4.66797,0.674255 m -1.6776,21.756114 c 2.92707,0 5.09592,0.74457 6.50787,2.23107 1.32793,1.46348 1.99678,3.19034 1.99678,5.18901 0,2.05932 -0.75822,3.81743 -2.27483,5.27949 -1.5179,1.46201 -4.01147,2.19453 -7.48628,2.19453 h -1.29767 -10.4863 v -14.8941 z m 58.86935,0.28526 c 1.74368,-1.16883 3.19826,-2.52823 4.36101,-4.07814 1.16269,-1.5499 2.02023,-3.26206 2.5748,-5.137658 0.55328,-1.877009 0.83115,-3.79313 0.83115,-5.751131 0,-2.555299 -0.43092,-4.906523 -1.2881,-7.055192 -0.86007,-2.147154 -2.14681,-3.995688 -3.86285,-5.545749 -1.71747,-1.54991 -3.86287,-2.759368 -6.4377,-3.629529 -2.57481,-0.868904 -5.55136,-1.305371 -8.9285,-1.305371 h -0.3039 -22.37214 -0.20916 v 57.09366 h 11.00784 v -21.20588 h 6.13769 l 15.1805,21.20588 h 12.9029 l -15.69783,-21.93973 c 2.32431,-0.59728 4.35968,-1.48106 6.1047,-2.65116 M 352.47721,84.692286 a 15.698278,15.434903 0 0 1 1.96798,0.121464 c 1.96246,0.290305 3.56564,0.97837 4.80145,2.071454 1.6817,1.490538 2.52256,3.31745 2.52256,5.482246 a 9.887115,9.7212344 0 0 1 -0.53811,3.16877 7.3608064,7.2373116 0 0 1 -1.6955,2.72015 c -0.77333,0.786455 -1.76563,1.421548 -2.97802,1.90937 -1.21383,0.48787 -2.67527,0.73111 -4.38441,0.73111 H 340.51715 V 84.692084 Z m 26.14814,-9.787496 v 0.01512 l -0.33132,-0.01512 h -0.0935 v 0.0041 20.927527 14.995273 21.16661 h 11.22401 V 74.90464 Z"
       fill-rule="nonzero"
       id="path6"
       style="fill:#ffffff;fill-opacity:1;stroke-width:0.161404" /></g></svg>
